<svg width="280" height="220" viewBox="0 0 280 220" xmlns="http://www.w3.org/2000/svg"><defs><filter x="-5.3%" y="-6.6%" width="110.7%" height="113.2%" filterUnits="objectBoundingBox" id="a"><feOffset dy="2" in="SourceAlpha" result="shadowOffsetOuter1"/><feGaussianBlur stdDeviation="3" in="shadowOffsetOuter1" result="shadowBlurOuter1"/><feColorMatrix values="0 0 0 0 0 0 0 0 0 0 0 0 0 0 0 0 0 0 0.15 0" in="shadowBlurOuter1" result="shadowMatrixOuter1"/><feMerge><feMergeNode in="shadowMatrixOuter1"/><feMergeNode in="SourceGraphic"/></feMerge></filter></defs><g filter="url(#a)" transform="translate(-8.23 -10.07)" fill-rule="nonzero" fill="none"><path d="M107.1 181.06a77.8 77.8 0 0 1-23.07-1.35l-1.62-.33-.12-.7a4155.98 4155.98 0 0 0-2.52-13.1l-.16-.91-2.42-.88a68.82 68.82 0 0 1-12.22-5.8 21.5 21.5 0 0 0-2.3-1.28c-.12 0-11.78 6.2-12.93 6.87-.22.14-.52-.07-1.99-1.3a80.92 80.92 0 0 1-13.52-14.52 41.1 41.1 0 0 1-2.64-3.98c-.03-.1 1.78-2.9 4.02-6.2l4.16-6.13c.05-.09-.3-.93-.78-1.94a66.08 66.08 0 0 1-3.7-9.51 110.6 110.6 0 0 1-1.4-4.96l-.32-1.4-7.18-2.16a145 145 0 0 1-7.23-2.26c-.08-.28-.4-4.3-.47-6.2-.22-5.4.11-10.31 1.09-16.02.37-2.2.74-4.14.79-4.3.12-.32-.73-.13 11.95-2.55l2.82-.55.78-2.16a76.48 76.48 0 0 1 6.27-13.13c.5-.81.9-1.55.9-1.65 0-.13-6.15-11.68-6.87-12.92-.14-.22.02-.48 1-1.64a81.7 81.7 0 0 1 13.02-12.52c2.38-1.83 5.6-4 5.9-4 .11.01 2.93 1.87 6.26 4.15l6.05 4.11.57-.25c.31-.14 1.13-.51 1.81-.84a81.45 81.45 0 0 1 14.06-4.91l1.28-.28 2.15-7.19 2.15-7.17.5-.07c7.54-.96 16.7-.52 24.83 1.17l1.58.34.14.67 1.23 6.43 1.28 6.67.17.92 2.1.77c4.57 1.66 9.45 4 13.2 6.3.8.49 1.54.9 1.64.89.13 0 11.69-6.15 12.93-6.87.21-.14.48.05 1.8 1.14a76.94 76.94 0 0 1 10.02 9.98c2.75 3.27 6.36 8.29 6.31 8.8 0 .16-7.02 10.66-8.1 12.13-.14.17-.04.44.7 2.02a64.42 64.42 0 0 1 3.7 9.51c.6 1.95 1.24 4.17 1.42 4.96l.32 1.4 7.18 2.16c3.95 1.19 7.2 2.19 7.21 2.24.08.26.36 3.66.44 5.42a77.18 77.18 0 0 1-1.6 19.97l-.3 1.42-.75.16-5.75 1.09-6.6 1.27-1.6.3-.88 2.42c-.5 1.34-1.26 3.3-1.71 4.34a92.8 92.8 0 0 1-4.79 9.05 3.38 3.38 0 0 0-.6 1.19c.04.11 1.63 3.1 3.55 6.65l3.48 6.47c.03.1-3.18 3.8-4.44 5.15a95.65 95.65 0 0 1-8.44 7.77c-3.13 2.47-6.78 5-7.2 4.98-.14-.02-10.52-6.97-12.11-8.12-.17-.13-.44-.03-2.02.7a63.03 63.03 0 0 1-9.7 3.78 102.9 102.9 0 0 1-4.96 1.41l-1.21.26-2.16 7.17c-1.39 4.65-2.22 7.22-2.36 7.24-.12.04-1.02.13-2.03.2zm9.2-37.64a46.33 46.33 0 0 0 17.66-74.99A45.88 45.88 0 0 0 111.27 55a46.46 46.46 0 0 0-46.21 14.5 46.47 46.47 0 0 0-10.93 37.52 46.38 46.38 0 0 0 11.82 24.47 46.33 46.33 0 0 0 50.35 11.93z" fill="#B4BBC2"/><path d="M243.2 212.11a57.18 57.18 0 0 1-16.18 5.15l-1.2.2-.27-.44a3054.18 3054.18 0 0 0-5.18-8.33l-.35-.59-1.9.03c-3.44.06-6.74-.18-9.9-.76a15.8 15.8 0 0 0-1.92-.27c-.08.04-6.45 7.36-7.06 8.13-.12.15-.38.09-1.7-.37a59.48 59.48 0 0 1-13.12-6.41 30.22 30.22 0 0 1-2.85-2.04 68.3 68.3 0 0 1 1.12-5.31l1.24-5.3c.01-.07-.45-.56-1.04-1.13-2-1.91-3.3-3.34-5.05-5.55a81.3 81.3 0 0 1-2.27-3.03l-.59-.88-5.5.4c-3.02.24-5.52.4-5.55.36-.13-.17-1.4-2.85-1.96-4.13a54.3 54.3 0 0 1-3.47-11.28 72.39 72.39 0 0 1-.59-3.16c0-.25-.53.1 7.53-4.9l1.79-1.11-.03-1.69c-.07-3.49.25-7.5.84-10.66.13-.69.21-1.3.19-1.37-.04-.1-7.3-6.4-8.13-7.06-.15-.11-.1-.34.26-1.39A60.05 60.05 0 0 1 166 127.2c1.15-1.88 2.79-4.23 3-4.3.07-.02 2.5.51 5.38 1.2l5.23 1.23.33-.32a59.86 59.86 0 0 1 9.38-8.13l.8-.52-.42-5.5-.41-5.5.32-.17a58.1 58.1 0 0 1 17.35-5.74l1.17-.19.27.43 2.54 4.09 2.64 4.24.36.59 1.64-.03c3.58-.06 7.54.25 10.7.84.7.13 1.31.21 1.38.18a436 436 0 0 0 7.06-8.12c.1-.15.35-.1 1.53.31a56.56 56.56 0 0 1 9.51 4.21c2.75 1.52 6.55 4.01 6.65 4.38.04.1-2.01 9.16-2.37 10.46-.04.15.1.31 1.02 1.2 2 1.91 3.31 3.34 5.05 5.55a80.98 80.98 0 0 1 2.27 3.03l.6.88 5.49-.41c3.02-.23 5.51-.4 5.54-.37a57.7 57.7 0 0 1 5.89 17.73l.17 1.06-.47.3c-.27.16-1.9 1.19-3.67 2.27l-4.2 2.61-1 .63.03 1.89c.01 1.05 0 2.59-.04 3.42-.06 1.72-.6 6.19-.9 7.48-.1.46-.14.9-.1.97.07.07 1.94 1.7 4.19 3.63l4.1 3.52c.04.06-1.19 3.44-1.7 4.71a70.3 70.3 0 0 1-3.74 7.55c-1.5 2.52-3.33 5.22-3.62 5.31-.1.03-9.06-2-10.46-2.37-.15-.05-.3.09-1.2 1.01a46.32 46.32 0 0 1-5.66 5.14c-1.25.98-2.61 2-3.03 2.28l-.76.5.4 5.49c.28 3.55.38 5.53.3 5.59-.08.05-.67.35-1.34.67zm-3.69-28.35a33.95 33.95 0 0 0-7.6-55.94 33.62 33.62 0 0 0-19.05-3.23 34.05 34.05 0 0 0-27.82 22.05 33.99 33.99 0 0 0 16.9 42.18 33.95 33.95 0 0 0 37.57-5.06z" fill="#BCC3C8"/></g></svg>